<svg width="21" height="20" viewBox="0 0 21 20" fill="none" xmlns="http://www.w3.org/2000/svg">
<g id="arrow_circle_left">
<mask id="mask0_16180_1720" style="mask-type:alpha" maskUnits="userSpaceOnUse" x="0" y="0" width="21" height="20">
<rect id="Bounding box" x="20.4453" y="20" width="20" height="20" transform="rotate(-180 20.4453 20)" fill="#D9D9D9"/>
</mask>
<g mask="url(#mask0_16180_1720)">
<path id="arrow_circle_left_2" fill-rule="evenodd" clip-rule="evenodd" d="M9.86263 8.41683C9.54046 8.09466 9.54046 7.57233 9.86263 7.25016C10.1848 6.928 10.7071 6.92799 11.0293 7.25016L13.0722 9.29306C13.4627 9.68358 13.4627 10.3167 13.0722 10.7073L11.0293 12.7502C10.7071 13.0723 10.1848 13.0723 9.86263 12.7502C9.54046 12.428 9.54046 11.9057 9.86263 11.5835L10.6126 10.8335L7.94596 10.8335C7.48573 10.8335 7.11263 10.4604 7.11263 10.0002C7.11263 9.53992 7.48573 9.16683 7.94596 9.16683L10.6126 9.16683L9.86263 8.41683Z" fill="white"/>
</g>
</g>
</svg>
