<svg width="17" height="17" viewBox="0 0 17 17" fill="none" xmlns="http://www.w3.org/2000/svg">
<g id="oui:arrow-right">
<path id="Vector" d="M5.65771 13.5691L10.2687 8.88405C10.3698 8.78183 10.4266 8.64384 10.4266 8.50005C10.4266 8.35626 10.3698 8.21827 10.2687 8.11605L5.65871 3.43005C5.55764 3.3272 5.501 3.18876 5.501 3.04455C5.501 2.90034 5.55764 2.76191 5.65871 2.65905C5.70809 2.6084 5.76711 2.56815 5.83228 2.54067C5.89746 2.51318 5.96748 2.49902 6.03821 2.49902C6.10895 2.49902 6.17897 2.51318 6.24414 2.54067C6.30932 2.56815 6.36834 2.6084 6.41771 2.65905L11.0277 7.34305C11.3306 7.65157 11.5004 8.06667 11.5004 8.49905C11.5004 8.93143 11.3306 9.34653 11.0277 9.65505L6.41771 14.3391C6.36832 14.3899 6.30924 14.4302 6.24397 14.4578C6.1787 14.4854 6.10857 14.4996 6.03771 14.4996C5.96686 14.4996 5.89672 14.4854 5.83145 14.4578C5.76618 14.4302 5.70711 14.3899 5.65771 14.3391C5.55664 14.2362 5.5 14.0978 5.5 13.9536C5.5 13.8093 5.55664 13.6709 5.65771 13.5681" fill="currentColor"/>
</g>
</svg>
