<svg width="285" height="204" viewBox="0 0 285 204" fill="none" xmlns="http://www.w3.org/2000/svg">
<mask id="path-1-inside-1_10026_4276" fill="white">
<path fill-rule="evenodd" clip-rule="evenodd" d="M285 30C285 13.4315 271.569 0 255 0H30C13.4315 0 0 13.4315 0 30V127V174C0 190.569 13.4315 204 30 204H136.099C152.667 204 166.099 190.569 166.099 174V157C166.099 140.431 179.53 127 196.099 127H255C271.569 127 285 113.569 285 97V30Z"/>
</mask>
<path d="M30 1.5H255V-1.5H30V1.5ZM1.5 127V30H-1.5V127H1.5ZM1.5 174V127H-1.5V174H1.5ZM136.099 202.5H30V205.5H136.099V202.5ZM164.599 157V174H167.599V157H164.599ZM255 125.5H196.099V128.5H255V125.5ZM283.5 30V97H286.5V30H283.5ZM255 128.5C272.397 128.5 286.5 114.397 286.5 97H283.5C283.5 112.74 270.74 125.5 255 125.5V128.5ZM136.099 205.5C153.496 205.5 167.599 191.397 167.599 174H164.599C164.599 189.74 151.839 202.5 136.099 202.5V205.5ZM-1.5 174C-1.5 191.397 12.6031 205.5 30 205.5V202.5C14.2599 202.5 1.5 189.74 1.5 174H-1.5ZM255 1.5C270.74 1.5 283.5 14.2599 283.5 30H286.5C286.5 12.603 272.397 -1.5 255 -1.5V1.5ZM167.599 157C167.599 141.26 180.359 128.5 196.099 128.5V125.5C178.702 125.5 164.599 139.603 164.599 157H167.599ZM30 -1.5C12.603 -1.5 -1.5 12.603 -1.5 30H1.5C1.5 14.2599 14.2599 1.5 30 1.5V-1.5Z" fill="white" mask="url(#path-1-inside-1_10026_4276)"/>
</svg>
