<svg width="22" height="21" viewBox="0 0 22 21" fill="none" xmlns="http://www.w3.org/2000/svg">
<g id="play_circle">
<path fill-rule="evenodd" clip-rule="evenodd" d="M10.9792 18.6837C13.3669 18.6837 15.3894 17.8851 17.0465 16.288C18.7036 14.6908 19.5322 12.7415 19.5322 10.4402C19.5322 8.13886 18.7036 6.1896 17.0465 4.59241C15.3894 2.99523 13.3669 2.19663 10.9792 2.19663C8.59156 2.19663 6.56914 2.99523 4.91201 4.59241C3.25488 6.1896 2.42632 8.13886 2.42632 10.4402C2.42632 12.7415 3.25488 14.6908 4.91201 16.288C6.56914 17.8851 8.59156 18.6837 10.9792 18.6837ZM14.4183 9.59013C15.0494 9.98115 15.0494 10.8992 14.4183 11.2902L9.83315 14.1312C9.16698 14.544 8.30646 14.0649 8.30646 13.2812V7.59919C8.30646 6.8155 9.16698 6.33637 9.83315 6.74913L14.4183 9.59013Z" fill="#1C1B1F"/>
<path fill-rule="evenodd" clip-rule="evenodd" d="M6.80969 19.9332C8.11045 20.4741 9.5003 20.7446 10.9792 20.7446C12.4582 20.7446 13.848 20.4741 15.1488 19.9332C16.4496 19.3922 17.581 18.658 18.5432 17.7306C19.5055 16.8032 20.2672 15.7126 20.8285 14.4589C21.3898 13.2052 21.6704 11.8656 21.6704 10.4402C21.6704 9.01474 21.3898 7.67516 20.8285 6.42145C20.2672 5.16775 19.5055 4.07719 18.5432 3.14979C17.581 2.22239 16.4496 1.4882 15.1488 0.947217C13.848 0.406234 12.4582 0.135742 10.9792 0.135742C9.5003 0.135742 8.11045 0.406234 6.80969 0.947217C5.50894 1.4882 4.37746 2.22239 3.41525 3.14979C2.45305 4.07719 1.6913 5.16775 1.13002 6.42145C0.568729 7.67516 0.288086 9.01474 0.288086 10.4402C0.288086 11.8656 0.568729 13.2052 1.13002 14.4589C1.6913 15.7126 2.45305 16.8032 3.41525 17.7306C4.37746 18.658 5.50894 19.3922 6.80969 19.9332ZM17.0465 16.288C15.3894 17.8851 13.3669 18.6837 10.9792 18.6837C8.59156 18.6837 6.56914 17.8851 4.91201 16.288C3.25488 14.6908 2.42632 12.7415 2.42632 10.4402C2.42632 8.13886 3.25488 6.1896 4.91201 4.59241C6.56914 2.99523 8.59156 2.19663 10.9792 2.19663C13.3669 2.19663 15.3894 2.99523 17.0465 4.59241C18.7036 6.1896 19.5322 8.13886 19.5322 10.4402C19.5322 12.7415 18.7036 14.6908 17.0465 16.288Z" fill="#1C1B1F"/>
<path d="M8.30646 13.2812C8.30646 14.0649 9.16698 14.544 9.83315 14.1312L14.4183 11.2902C15.0494 10.8992 15.0494 9.98115 14.4183 9.59013L9.83315 6.74913C9.16698 6.33637 8.30646 6.8155 8.30646 7.59919V13.2812Z" fill="white"/>
</g>
</svg>
