<svg width="21" height="20" viewBox="0 0 21 20" fill="none" xmlns="http://www.w3.org/2000/svg">
<g id="add_circle">
<mask id="mask0_16180_1717" style="mask-type:alpha" maskUnits="userSpaceOnUse" x="0" y="0" width="21" height="20">
<rect id="Bounding box" x="0.445312" width="20" height="20" fill="#D9D9D9"/>
</mask>
<g mask="url(#mask0_16180_1717)">
<path id="add_circle_2" fill-rule="evenodd" clip-rule="evenodd" d="M12.278 10.8332C11.7257 10.8332 11.278 11.2809 11.278 11.8332V13.3332C11.278 13.7934 10.9049 14.1665 10.4447 14.1665C9.98442 14.1665 9.61133 13.7934 9.61133 13.3332V11.8332C9.61133 11.2809 9.16361 10.8332 8.61133 10.8332H7.11133C6.65109 10.8332 6.27799 10.4601 6.27799 9.99984C6.27799 9.5396 6.65109 9.1665 7.11133 9.1665H8.61133C9.16361 9.1665 9.61133 8.71879 9.61133 8.1665V6.6665C9.61133 6.20627 9.98442 5.83317 10.4447 5.83317C10.9049 5.83317 11.278 6.20627 11.278 6.6665V8.1665C11.278 8.71879 11.7257 9.1665 12.278 9.1665H13.778C14.2382 9.1665 14.6113 9.5396 14.6113 9.99984C14.6113 10.4601 14.2382 10.8332 13.778 10.8332H12.278Z" fill="white"/>
</g>
</g>
</svg>
